<svg xmlns="http://www.w3.org/2000/svg" viewBox="0 0 24 24" fill="none" stroke-linecap="round" stroke-linejoin="round">
  <style>
    .frame { stroke: #1e293b; }
    @media (prefers-color-scheme: dark) {
      .frame { stroke: #cbd5e1; }
    }
  </style>
  <path class="frame" stroke-width="2" d="M8 4H6a2 2 0 0 0-2 2v2" />
  <path class="frame" stroke-width="2" d="M16 4h2a2 2 0 0 1 2 2v2" />
  <path class="frame" stroke-width="2" d="M20 16v2a2 2 0 0 1-2 2h-2" />
  <path class="frame" stroke-width="2" d="M8 20H6a2 2 0 0 1-2-2v-2" />
  <path d="M12 6c0 3.5-2.5 6-6 6 3.5 0 6 2.5 6 6 0-3.5 2.5-6 6-6-3.5 0-6-2.5-6-6Z" fill="#3b82f6" stroke="none" />
</svg>
